# xmcd CD database file
#
# Track frame offsets:
#	150
#	27828
#	48516
#	70863
#	103890
#	126995
#	143178
#	166893
#	193074
#	227650
#
# Disc length: 3403 seconds
#
# Revision: 0
# Processed by: cddbd v1.5.2PL0 Copyright (c) Steve Scherf et al.
# Submitted via: CDex 1.51
#
DISCID=8d0d490a
DTITLE=Roberto Gatto - Traps
DYEAR=2007
DGENRE=Jazz
TTITLE0=The Hands
TTITLE1=Whispering
TTITLE2=Traps
TTITLE3=Octagonal
TTITLE4=Monkish
TTITLE5=North
TTITLE6=A Night In Salzau
TTITLE7=Was Zahlen Sie (Extract from Der Silbersee)
TTITLE8=Flow
TTITLE9=Catch The Drums
EXTD=YEAR: 2007
EXTT0=
EXTT1=
EXTT2=
EXTT3=
EXTT4=
EXTT5=
EXTT6=
EXTT7=
EXTT8=
EXTT9=
PLAYORDER=
